<?xml version="1.0" encoding="UTF-8" standalone="no"?>
<!DOCTYPE svg PUBLIC "-//W3C//DTD SVG 1.1//EN"
 "http://www.w3.org/Graphics/SVG/1.1/DTD/svg11.dtd">
<!-- Generated by graphviz version 2.40.1 (20161225.0304)
 -->
<!-- Title: RepoGraph Pages: 1 -->
<svg width="1100pt" height="272pt"
 viewBox="0.00 0.00 1100.00 272.00" xmlns="http://www.w3.org/2000/svg" xmlns:xlink="http://www.w3.org/1999/xlink">
<g id="graph0" class="graph" transform="scale(1 1) rotate(0) translate(4 268)">
<title>RepoGraph</title>
<polygon fill="#ffffff" stroke="transparent" points="-4,4 -4,-268 1096,-268 1096,4 -4,4"/>
<g id="clust1" class="cluster">
<title>cluster_1</title>
<polygon fill="#ffffff" stroke="#ffffff" points="8,-8 8,-256 1084,-256 1084,-8 8,-8"/>
</g>
<g id="clust2" class="cluster">
<title>cluster_common</title>
<polygon fill="#26a753" stroke="#26a753" points="754,-88 754,-248 1076,-248 1076,-88 754,-88"/>
<text text-anchor="middle" x="915" y="-232.8" font-family="Helvetica,sans-Serif" font-size="14.00" fill="#ffffff">Common Libraries</text>
<text text-anchor="middle" x="915" y="-218.8" font-family="Helvetica,sans-Serif" font-size="14.00" fill="#ffffff"> </text>
</g>
<g id="clust3" class="cluster">
<title>cluster_joy</title>
<polygon fill="#a560ff" stroke="#a560ff" points="601,-16 601,-248 746,-248 746,-16 601,-16"/>
<text text-anchor="middle" x="673.5" y="-232.8" font-family="Helvetica,sans-Serif" font-size="14.00" fill="#ffffff">Joy</text>
<text text-anchor="middle" x="673.5" y="-218.8" font-family="Helvetica,sans-Serif" font-size="14.00" fill="#ffffff">Scene Graph Library</text>
</g>
<g id="clust4" class="cluster">
<title>cluster_perspective</title>
<polygon fill="#3a8ee5" stroke="#3a8ee5" points="16,-16 16,-248 593,-248 593,-16 16,-16"/>
<text text-anchor="middle" x="304.5" y="-232.8" font-family="Helvetica,sans-Serif" font-size="14.00" fill="#ffffff">Perspective</text>
<text text-anchor="middle" x="304.5" y="-218.8" font-family="Helvetica,sans-Serif" font-size="14.00" fill="#ffffff">3D Puzzle Game</text>
</g>
<!-- JavaCommon -->
<g id="node1" class="node">
<title>JavaCommon</title>
<polygon fill="none" stroke="#ffffff" points="1068.3659,-204 965.6341,-204 965.6341,-168 1068.3659,-168 1068.3659,-204"/>
<text text-anchor="middle" x="1017" y="-181.8" font-family="Helvetica,sans-Serif" font-size="14.00" fill="#ffffff">JavaCommon</text>
</g>
<!-- AletheiaWareCommonJava -->
<g id="node2" class="node">
<title>AletheiaWareCommonJava</title>
<polygon fill="none" stroke="#ffffff" points="947.8936,-204 762.1064,-204 762.1064,-168 947.8936,-168 947.8936,-204"/>
<text text-anchor="middle" x="855" y="-181.8" font-family="Helvetica,sans-Serif" font-size="14.00" fill="#ffffff">AletheiaWareCommonJava</text>
</g>
<!-- JavaCommon&#45;&gt;AletheiaWareCommonJava -->
<g id="edge10" class="edge">
<title>JavaCommon&#45;&gt;AletheiaWareCommonJava</title>
<path fill="none" stroke="#ffffff" d="M965.7422,-186C965.7422,-186 957.945,-186 957.945,-186"/>
<polygon fill="#ffffff" stroke="#ffffff" points="957.9451,-182.5001 947.945,-186 957.945,-189.5001 957.9451,-182.5001"/>
</g>
<!-- JoyJava -->
<g id="node5" class="node">
<title>JoyJava</title>
<polygon fill="none" stroke="#ffffff" points="706.8594,-132 639.1406,-132 639.1406,-96 706.8594,-96 706.8594,-132"/>
<text text-anchor="middle" x="673" y="-109.8" font-family="Helvetica,sans-Serif" font-size="14.00" fill="#ffffff">JoyJava</text>
</g>
<!-- JavaCommon&#45;&gt;JoyJava -->
<g id="edge11" class="edge">
<title>JavaCommon&#45;&gt;JoyJava</title>
<path fill="none" stroke="#ffffff" d="M1034.2178,-167.9561C1034.2178,-155.4367 1034.2178,-141 1034.2178,-141 1034.2178,-141 682,-141 682,-141 682,-141 682,-140.1159 682,-140.1159"/>
<polygon fill="#ffffff" stroke="#ffffff" points="685.5001,-142.1591 682,-132.1592 678.5001,-142.1592 685.5001,-142.1591"/>
</g>
<!-- PerspectiveJava -->
<g id="node8" class="node">
<title>PerspectiveJava</title>
<polygon fill="none" stroke="#ffffff" points="585.2171,-132 466.7829,-132 466.7829,-96 585.2171,-96 585.2171,-132"/>
<text text-anchor="middle" x="526" y="-109.8" font-family="Helvetica,sans-Serif" font-size="14.00" fill="#ffffff">PerspectiveJava</text>
</g>
<!-- JavaCommon&#45;&gt;PerspectiveJava -->
<g id="edge12" class="edge">
<title>JavaCommon&#45;&gt;PerspectiveJava</title>
<path fill="none" stroke="#ffffff" d="M1000.2529,-167.5782C1000.2529,-158.7209 1000.2529,-150 1000.2529,-150 1000.2529,-150 580.4297,-150 580.4297,-150 580.4297,-150 580.4297,-142.4218 580.4297,-142.4218"/>
<polygon fill="#ffffff" stroke="#ffffff" points="583.9298,-142.4218 580.4297,-132.4218 576.9298,-142.4219 583.9298,-142.4218"/>
</g>
<!-- AletheiaWareCommonAndroid -->
<g id="node3" class="node">
<title>AletheiaWareCommonAndroid</title>
<polygon fill="none" stroke="#ffffff" points="966.0766,-132 761.9234,-132 761.9234,-96 966.0766,-96 966.0766,-132"/>
<text text-anchor="middle" x="864" y="-109.8" font-family="Helvetica,sans-Serif" font-size="14.00" fill="#ffffff">AletheiaWareCommonAndroid</text>
</g>
<!-- AletheiaWareCommonJava&#45;&gt;AletheiaWareCommonAndroid -->
<g id="edge1" class="edge">
<title>AletheiaWareCommonJava&#45;&gt;AletheiaWareCommonAndroid</title>
<path fill="none" stroke="#ffffff" d="M885.9823,-167.8314C885.9823,-167.8314 885.9823,-142.4133 885.9823,-142.4133"/>
<polygon fill="#ffffff" stroke="#ffffff" points="889.4824,-142.4132 885.9823,-132.4133 882.4824,-142.4133 889.4824,-142.4132"/>
</g>
<!-- AletheiaWareCommonJava&#45;&gt;PerspectiveJava -->
<g id="edge13" class="edge">
<title>AletheiaWareCommonJava&#45;&gt;PerspectiveJava</title>
<path fill="none" stroke="#ffffff" d="M824.0177,-167.8408C824.0177,-162.9567 824.0177,-159 824.0177,-159 824.0177,-159 575.501,-159 575.501,-159 575.501,-159 575.501,-142.0439 575.501,-142.0439"/>
<polygon fill="#ffffff" stroke="#ffffff" points="579.0011,-142.0439 575.501,-132.0439 572.0011,-142.044 579.0011,-142.0439"/>
</g>
<!-- PerspectiveAndroid -->
<g id="node9" class="node">
<title>PerspectiveAndroid</title>
<polygon fill="none" stroke="#ffffff" points="382.9,-60 245.1,-60 245.1,-24 382.9,-24 382.9,-60"/>
<text text-anchor="middle" x="314" y="-37.8" font-family="Helvetica,sans-Serif" font-size="14.00" fill="#ffffff">PerspectiveAndroid</text>
</g>
<!-- AletheiaWareCommonAndroid&#45;&gt;PerspectiveAndroid -->
<g id="edge15" class="edge">
<title>AletheiaWareCommonAndroid&#45;&gt;PerspectiveAndroid</title>
<path fill="none" stroke="#ffffff" d="M864,-95.5782C864,-86.7209 864,-78 864,-78 864,-78 363.57,-78 363.57,-78 363.57,-78 363.57,-70.4218 363.57,-70.4218"/>
<polygon fill="#ffffff" stroke="#ffffff" points="367.0701,-70.4218 363.57,-60.4218 360.0701,-70.4219 367.0701,-70.4218"/>
</g>
<!-- Joy -->
<g id="node4" class="node">
<title>Joy</title>
<polygon fill="none" stroke="#ffffff" points="700,-204 646,-204 646,-168 700,-168 700,-204"/>
<text text-anchor="middle" x="673" y="-181.8" font-family="Helvetica,sans-Serif" font-size="14.00" fill="#ffffff">Joy</text>
</g>
<!-- Joy&#45;&gt;JoyJava -->
<g id="edge2" class="edge">
<title>Joy&#45;&gt;JoyJava</title>
<path fill="none" stroke="#ffffff" d="M664,-167.8314C664,-167.8314 664,-142.4133 664,-142.4133"/>
<polygon fill="#ffffff" stroke="#ffffff" points="667.5001,-142.4132 664,-132.4133 660.5001,-142.4133 667.5001,-142.4132"/>
</g>
<!-- Perspective -->
<g id="node7" class="node">
<title>Perspective</title>
<polygon fill="none" stroke="#ffffff" points="570.6446,-204 481.3554,-204 481.3554,-168 570.6446,-168 570.6446,-204"/>
<text text-anchor="middle" x="526" y="-181.8" font-family="Helvetica,sans-Serif" font-size="14.00" fill="#ffffff">Perspective</text>
</g>
<!-- Joy&#45;&gt;Perspective -->
<g id="edge9" class="edge">
<title>Joy&#45;&gt;Perspective</title>
<path fill="none" stroke="#ffffff" d="M645.6949,-186C645.6949,-186 580.7731,-186 580.7731,-186"/>
<polygon fill="#ffffff" stroke="#ffffff" points="580.7731,-182.5001 570.7731,-186 580.7731,-189.5001 580.7731,-182.5001"/>
</g>
<!-- JoyAndroid -->
<g id="node6" class="node">
<title>JoyAndroid</title>
<polygon fill="none" stroke="#ffffff" points="716.041,-60 629.959,-60 629.959,-24 716.041,-24 716.041,-60"/>
<text text-anchor="middle" x="673" y="-37.8" font-family="Helvetica,sans-Serif" font-size="14.00" fill="#ffffff">JoyAndroid</text>
</g>
<!-- JoyJava&#45;&gt;JoyAndroid -->
<g id="edge3" class="edge">
<title>JoyJava&#45;&gt;JoyAndroid</title>
<path fill="none" stroke="#ffffff" d="M673,-95.8314C673,-95.8314 673,-70.4133 673,-70.4133"/>
<polygon fill="#ffffff" stroke="#ffffff" points="676.5001,-70.4132 673,-60.4133 669.5001,-70.4133 676.5001,-70.4132"/>
</g>
<!-- JoyJava&#45;&gt;PerspectiveJava -->
<g id="edge14" class="edge">
<title>JoyJava&#45;&gt;PerspectiveJava</title>
<path fill="none" stroke="#ffffff" d="M639.2752,-114C639.2752,-114 595.237,-114 595.237,-114"/>
<polygon fill="#ffffff" stroke="#ffffff" points="595.237,-110.5001 585.237,-114 595.2369,-117.5001 595.237,-110.5001"/>
</g>
<!-- JoyAndroid&#45;&gt;PerspectiveAndroid -->
<g id="edge16" class="edge">
<title>JoyAndroid&#45;&gt;PerspectiveAndroid</title>
<path fill="none" stroke="#ffffff" d="M629.6962,-36C629.6962,-36 392.9789,-36 392.9789,-36"/>
<polygon fill="#ffffff" stroke="#ffffff" points="392.979,-32.5001 382.9789,-36 392.9789,-39.5001 392.979,-32.5001"/>
</g>
<!-- Perspective&#45;&gt;PerspectiveJava -->
<g id="edge4" class="edge">
<title>Perspective&#45;&gt;PerspectiveJava</title>
<path fill="none" stroke="#ffffff" d="M526,-167.8314C526,-167.8314 526,-142.4133 526,-142.4133"/>
<polygon fill="#ffffff" stroke="#ffffff" points="529.5001,-142.4132 526,-132.4133 522.5001,-142.4133 529.5001,-142.4132"/>
</g>
<!-- PerspectiveJava&#45;&gt;PerspectiveAndroid -->
<g id="edge5" class="edge">
<title>PerspectiveJava&#45;&gt;PerspectiveAndroid</title>
<path fill="none" stroke="#ffffff" d="M526,-95.9652C526,-76.4238 526,-48 526,-48 526,-48 392.8303,-48 392.8303,-48"/>
<polygon fill="#ffffff" stroke="#ffffff" points="392.8304,-44.5001 382.8303,-48 392.8303,-51.5001 392.8304,-44.5001"/>
</g>
<!-- PerspectiveMesh -->
<g id="node10" class="node">
<title>PerspectiveMesh</title>
<polygon fill="none" stroke="#ffffff" points="448.8795,-132 325.1205,-132 325.1205,-96 448.8795,-96 448.8795,-132"/>
<text text-anchor="middle" x="387" y="-109.8" font-family="Helvetica,sans-Serif" font-size="14.00" fill="#ffffff">PerspectiveMesh</text>
</g>
<!-- PerspectiveMesh&#45;&gt;PerspectiveAndroid -->
<g id="edge6" class="edge">
<title>PerspectiveMesh&#45;&gt;PerspectiveAndroid</title>
<path fill="none" stroke="#ffffff" d="M344.4403,-95.8314C344.4403,-95.8314 344.4403,-70.4133 344.4403,-70.4133"/>
<polygon fill="#ffffff" stroke="#ffffff" points="347.9404,-70.4132 344.4403,-60.4133 340.9404,-70.4133 347.9404,-70.4132"/>
</g>
<!-- PerspectivePuzzle -->
<g id="node11" class="node">
<title>PerspectivePuzzle</title>
<polygon fill="none" stroke="#ffffff" points="307.6651,-132 176.3349,-132 176.3349,-96 307.6651,-96 307.6651,-132"/>
<text text-anchor="middle" x="242" y="-109.8" font-family="Helvetica,sans-Serif" font-size="14.00" fill="#ffffff">PerspectivePuzzle</text>
</g>
<!-- PerspectivePuzzle&#45;&gt;PerspectiveAndroid -->
<g id="edge7" class="edge">
<title>PerspectivePuzzle&#45;&gt;PerspectiveAndroid</title>
<path fill="none" stroke="#ffffff" d="M276.4414,-95.8314C276.4414,-95.8314 276.4414,-70.4133 276.4414,-70.4133"/>
<polygon fill="#ffffff" stroke="#ffffff" points="279.9415,-70.4132 276.4414,-60.4133 272.9415,-70.4133 279.9415,-70.4132"/>
</g>
<!-- PerspectiveShader -->
<g id="node12" class="node">
<title>PerspectiveShader</title>
<polygon fill="none" stroke="#ffffff" points="158.2894,-132 23.7106,-132 23.7106,-96 158.2894,-96 158.2894,-132"/>
<text text-anchor="middle" x="91" y="-109.8" font-family="Helvetica,sans-Serif" font-size="14.00" fill="#ffffff">PerspectiveShader</text>
</g>
<!-- PerspectiveShader&#45;&gt;PerspectiveAndroid -->
<g id="edge8" class="edge">
<title>PerspectiveShader&#45;&gt;PerspectiveAndroid</title>
<path fill="none" stroke="#ffffff" d="M91,-95.8314C91,-74.502 91,-42 91,-42 91,-42 235.273,-42 235.273,-42"/>
<polygon fill="#ffffff" stroke="#ffffff" points="235.2731,-45.5001 245.273,-42 235.273,-38.5001 235.2731,-45.5001"/>
</g>
</g>
</svg>
