<!DOCTYPE svg PUBLIC "-//W3C//DTD SVG 1.1//EN" "http://www.w3.org/Graphics/SVG/1.1/DTD/svg11.dtd">
<svg version="1.1" xmlns="http://www.w3.org/2000/svg" xmlns:xlink="http://www.w3.org/1999/xlink" xml:space="preserve" width="114" height="36">
    <!-- First Layer: Canvas -->
    <g fill="red" stroke="none">
        <rect x="6" y="6" width="12" height="24"/>
    </g>
    <g fill="orange" stroke="none">
        <rect x="24" y="6" width="12" height="24"/>
    </g>
    <g fill="magenta" stroke="none">
        <rect x="42" y="6" width="12" height="24"/>
    </g>
    <g fill="green" stroke="none">
        <rect x="60" y="6" width="12" height="24"/>
    </g>
    <g fill="blue" stroke="none">
        <rect x="78" y="6" width="12" height="24"/>
    </g>
    <g fill="purple" stroke="none">
        <rect x="96" y="6" width="12" height="24"/>
    </g>
    <!-- Second Layer -->
    <g fill="red" stroke="none">
        <rect x="24" y="6" width="6" height="12"/>
    </g>
    <g fill="orange" stroke="none">
        <rect x="42" y="6" width="6" height="12"/>
    </g>
    <g fill="yellow" stroke="none">
        <rect x="60" y="6" width="6" height="12"/>
    </g>
    <g fill="green" stroke="none">
        <rect x="78" y="6" width="6" height="12"/>
    </g>
    <g fill="blue" stroke="none">
        <rect x="96" y="6" width="6" height="12"/>
    </g>
    <!-- Third Layer -->
    <g fill="red" stroke="none">
        <rect x="42" y="6" width="3" height="6"/>
    </g>
    <g fill="orange" stroke="none">
        <rect x="60" y="6" width="3" height="6"/>
    </g>
    <g fill="yellow" stroke="none">
        <rect x="78" y="6" width="3" height="6"/>
    </g>
    <g fill="green" stroke="none">
        <rect x="96" y="6" width="3" height="6"/>
    </g>
    <!-- Fourth Layer -->
    <g fill="red" stroke="none">
        <rect x="60" y="6" width="1.5" height="3"/>
    </g>
    <g fill="orange" stroke="none">
        <rect x="78" y="6" width="1.5" height="3"/>
    </g>
    <g fill="yellow" stroke="none">
        <rect x="96" y="6" width="1.5" height="3"/>
    </g>
    <!-- Fifth Layer -->
    <g fill="red" stroke="none">
        <rect x="78" y="6" width="0.75" height="1.5"/>
    </g>
    <g fill="orange" stroke="none">
        <rect x="96" y="6" width="0.75" height="1.5"/>
    </g>
    <!-- Sixth Layer -->
    <g fill="red" stroke="none">
        <rect x="96" y="6" width="0.375" height="0.75"/>
    </g>

    <!-- Error -->
    <g fill="none" stroke="red" stroke-width=".1">
        <rect x="41" y="5" width="14" height="26"/>
        <rect x="59" y="5" width="8" height="14"/>
        <rect x="77" y="5" width="5" height="8"/>
        <rect x="95" y="5" width="3.5" height="5"/>
    </g>
</svg>
