<!DOCTYPE svg PUBLIC "-//W3C//DTD SVG 1.1//EN" "http://www.w3.org/Graphics/SVG/1.1/DTD/svg11.dtd">
<svg version="1.1" xmlns="http://www.w3.org/2000/svg" xmlns:xlink="http://www.w3.org/1999/xlink" xml:space="preserve" width="48" height="60">
    <g stroke-linecap="butt" stroke-linejoin="bevel" stroke-width="1">
        <g fill="none" stroke="black">
            <!-- Left Candle Wick -->
            <polyline points="20,9 20,8" />
            <!-- Right Candle Wick -->
            <polyline points="28,9 28,8" />
        </g>
        <!-- Left Candle Stick -->
        <g fill="lightblue" stroke="blue">
            <polyline points="20,9 19,10 19,18 21,18 21,10 20,9" />
        </g>
        <!-- Right Candle Stick -->
        <g fill="lightblue" stroke="green">
            <polyline points="28,9 27,10 27,18 29,18 29,10 28,9" />
        </g>
        <g fill="yellow" stroke="orange">
            <!-- Left Candle Flame -->
            <path d="M 20,8 Q 24,8 20,1 Q 21,3 19,5 T 20,8 Z" />
            <!--<path d="M 20,8 Q 16,8 20,1 Q 19,3 21,5 T 20,8 Z" />-->
            <!-- Right Candle Flame -->
            <path d="M 28,8 Q 24,8 28,1 Q 27,3 29,5 T 28,8 Z" />
            <!--<path d="M 28,8 Q 32,8 28,1 Q 29,3 27,5 T 28,8 Z" />-->
        </g>
        <g fill="none" stroke="black">
            <circle cx="24" cy="38" r="20" />
            <polyline points="4,38 12,30 20,38 28,46 32,42 36,46 44,38" />
        </g>
    </g>
    <!-- Mask -->
    <g stroke-linecap="round" stroke-linejoin="round" stroke-width="1">
        <g stroke="teal">
            <polygon points="15,35 15,50 33,50 33,35" fill="aqua" />
            <path d="M15,35 Q -8,34 15,50" fill="none" />
            <path d="M33,35 Q 56,34 33,50" fill="none" />
        </g>
    </g>
</svg>
