<!DOCTYPE svg PUBLIC "-//W3C//DTD SVG 1.1//EN" "http://www.w3.org/Graphics/SVG/1.1/DTD/svg11.dtd">
<svg version="1.1" xmlns="http://www.w3.org/2000/svg" xmlns:xlink="http://www.w3.org/1999/xlink" xml:space="preserve" width="48" height="60">
    <g stroke-linecap="butt" stroke-linejoin="bevel" stroke-width="1">
        <g fill="none" stroke="black">
            <!-- Left Candle Wick -->
            <polyline points="18,9 18,8" />
            <!-- Center Candle Wick -->
            <polyline points="24,9 24,8" />
            <!-- Right Candle Wick -->
            <polyline points="30,9 30,8" />
        </g>
        <!-- Left Candle Stick -->
        <g fill="lightpink" stroke="red">
            <polyline points="18,9 17,10 17,20 19,20 19,10 18,9" />
        </g>
        <!-- Center Candle Stick -->
        <g fill="lightgreen" stroke="green">
            <polyline points="24,9 23,10 23,20 25,20 25,10 24,9" />
        </g>
        <!-- Right Candle Stick -->
        <g fill="lightblue" stroke="blue">
            <polyline points="30,9 29,10 29,20 31,20 31,10 30,9" />
        </g>
        <g fill="yellow" stroke="orange">
            <!-- Left Candle Flame -->
            <path d="M 18,8 Q 22,8 18,1 Q 19,3 17,5 T 18,8 Z" />
            <!-- Center Candle Flame -->
            <path d="M 24,8 Q 28,8 24,1 Q 25,3 23,5 T 24,8 Z" />
            <!-- Right Candle Flame -->
            <path d="M 30,8 Q 26,8 30,1 Q 29,3 31,5 T 30,8 Z" />
        </g>
        <g fill="white" stroke="black">
            <circle cx="24" cy="38" r="20" />
            <polyline points="4,38 12,30 20,38 28,46 32,42 36,46 44,38" />
        </g>
    </g>
    <!-- Mask -->
    <g stroke-linecap="round" stroke-linejoin="round" stroke-width="1">
        <g stroke="teal">
            <polygon points="15,35 15,50 33,50 33,35" fill="aqua" />
            <path d="M15,35 Q -8,34 15,50" fill="none" />
            <path d="M33,35 Q 56,34 33,50" fill="none" />
        </g>
    </g>
</svg>
