<?xml version="1.0" encoding="UTF-8" standalone="no"?>
<!DOCTYPE svg PUBLIC "-//W3C//DTD SVG 1.1//EN"
 "http://www.w3.org/Graphics/SVG/1.1/DTD/svg11.dtd">
<!-- Generated by graphviz version 2.40.1 (20161225.0304)
 -->
<!-- Title: RepoGraph Pages: 1 -->
<svg width="979pt" height="272pt"
 viewBox="0.00 0.00 979.00 272.00" xmlns="http://www.w3.org/2000/svg" xmlns:xlink="http://www.w3.org/1999/xlink">
<g id="page0,1_graph0" class="graph" transform="scale(1 1) rotate(0) translate(4 268)">
<title>RepoGraph</title>
<polygon fill="#ffffff" stroke="transparent" points="-4,4 -4,-268 975,-268 975,4 -4,4"/>
<g id="clust1" class="cluster">
<title>cluster_1</title>
<polygon fill="#ffffff" stroke="#ffffff" points="8,-8 8,-256 963,-256 963,-8 8,-8"/>
</g>
<g id="clust2" class="cluster">
<title>cluster_common</title>
<polygon fill="#26a753" stroke="#26a753" points="633,-88 633,-248 955,-248 955,-88 633,-88"/>
<text text-anchor="middle" x="794" y="-232.8" font-family="Helvetica,sans-Serif" font-size="14.00" fill="#ffffff">Common Libraries</text>
<text text-anchor="middle" x="794" y="-218.8" font-family="Helvetica,sans-Serif" font-size="14.00" fill="#ffffff"> </text>
</g>
<g id="clust3" class="cluster">
<title>cluster_bc</title>
<polygon fill="#e83233" stroke="#e83233" points="318,-16 318,-248 510,-248 510,-16 318,-16"/>
<text text-anchor="middle" x="414" y="-232.8" font-family="Helvetica,sans-Serif" font-size="14.00" fill="#ffffff">BC</text>
<text text-anchor="middle" x="414" y="-218.8" font-family="Helvetica,sans-Serif" font-size="14.00" fill="#ffffff">Universal Blockchain Library</text>
</g>
<g id="clust4" class="cluster">
<title>cluster_alias</title>
<polygon fill="#fe7404" stroke="#fe7404" points="518,-88 518,-248 625,-248 625,-88 518,-88"/>
<text text-anchor="middle" x="571.5" y="-232.8" font-family="Helvetica,sans-Serif" font-size="14.00" fill="#ffffff">Alias</text>
<text text-anchor="middle" x="571.5" y="-218.8" font-family="Helvetica,sans-Serif" font-size="14.00" fill="#ffffff">Identity Library</text>
</g>
<g id="clust5" class="cluster">
<title>cluster_finance</title>
<polygon fill="#fdd011" stroke="#fdd011" points="192,-88 192,-248 310,-248 310,-88 192,-88"/>
<text text-anchor="middle" x="251" y="-232.8" font-family="Helvetica,sans-Serif" font-size="14.00" fill="#ffffff">Finance</text>
<text text-anchor="middle" x="251" y="-218.8" font-family="Helvetica,sans-Serif" font-size="14.00" fill="#ffffff">Financial Library</text>
</g>
<g id="clust6" class="cluster">
<title>cluster_space</title>
<polygon fill="#000000" stroke="#000000" points="16,-16 16,-248 184,-248 184,-16 16,-16"/>
<text text-anchor="middle" x="100" y="-232.8" font-family="Helvetica,sans-Serif" font-size="14.00" fill="#ffffff">S P A C E</text>
<text text-anchor="middle" x="100" y="-218.8" font-family="Helvetica,sans-Serif" font-size="14.00" fill="#ffffff">Secure, Private, Storage</text>
</g>
<!-- JavaCommon -->
<g id="node1" class="node">
<title>JavaCommon</title>
<polygon fill="none" stroke="#ffffff" points="947.3659,-204 844.6341,-204 844.6341,-168 947.3659,-168 947.3659,-204"/>
<text text-anchor="middle" x="896" y="-181.8" font-family="Helvetica,sans-Serif" font-size="14.00" fill="#ffffff">JavaCommon</text>
</g>
<!-- AletheiaWareCommonJava -->
<g id="node2" class="node">
<title>AletheiaWareCommonJava</title>
<polygon fill="none" stroke="#ffffff" points="826.8936,-204 641.1064,-204 641.1064,-168 826.8936,-168 826.8936,-204"/>
<text text-anchor="middle" x="734" y="-181.8" font-family="Helvetica,sans-Serif" font-size="14.00" fill="#ffffff">AletheiaWareCommonJava</text>
</g>
<!-- JavaCommon&#45;&gt;AletheiaWareCommonJava -->
<g id="edge13" class="edge">
<title>JavaCommon&#45;&gt;AletheiaWareCommonJava</title>
<path fill="none" stroke="#ffffff" d="M844.7422,-186C844.7422,-186 836.945,-186 836.945,-186"/>
<polygon fill="#ffffff" stroke="#ffffff" points="836.9451,-182.5001 826.945,-186 836.945,-189.5001 836.9451,-182.5001"/>
</g>
<!-- BCJava -->
<g id="node5" class="node">
<title>BCJava</title>
<polygon fill="none" stroke="#ffffff" points="446.5205,-132 381.4795,-132 381.4795,-96 446.5205,-96 446.5205,-132"/>
<text text-anchor="middle" x="414" y="-109.8" font-family="Helvetica,sans-Serif" font-size="14.00" fill="#ffffff">BCJava</text>
</g>
<!-- JavaCommon&#45;&gt;BCJava -->
<g id="edge14" class="edge">
<title>JavaCommon&#45;&gt;BCJava</title>
<path fill="none" stroke="#ffffff" d="M906.4248,-167.9445C906.4248,-156.561 906.4248,-144 906.4248,-144 906.4248,-144 432,-144 432,-144 432,-144 432,-142.1432 432,-142.1432"/>
<polygon fill="#ffffff" stroke="#ffffff" points="435.5001,-142.1432 432,-132.1432 428.5001,-142.1432 435.5001,-142.1432"/>
</g>
<!-- AliasJava -->
<g id="node8" class="node">
<title>AliasJava</title>
<polygon fill="none" stroke="#ffffff" points="608.917,-132 533.083,-132 533.083,-96 608.917,-96 608.917,-132"/>
<text text-anchor="middle" x="571" y="-109.8" font-family="Helvetica,sans-Serif" font-size="14.00" fill="#ffffff">AliasJava</text>
</g>
<!-- JavaCommon&#45;&gt;AliasJava -->
<g id="edge15" class="edge">
<title>JavaCommon&#45;&gt;AliasJava</title>
<path fill="none" stroke="#ffffff" d="M926.8037,-167.9561C926.8037,-155.4367 926.8037,-141 926.8037,-141 926.8037,-141 605.3057,-141 605.3057,-141 605.3057,-141 605.3057,-140.1159 605.3057,-140.1159"/>
<polygon fill="#ffffff" stroke="#ffffff" points="608.8058,-142.1591 605.3057,-132.1592 601.8058,-142.1592 608.8058,-142.1591"/>
</g>
<!-- FinanceJava -->
<g id="node10" class="node">
<title>FinanceJava</title>
<polygon fill="none" stroke="#ffffff" points="298.8797,-132 203.1203,-132 203.1203,-96 298.8797,-96 298.8797,-132"/>
<text text-anchor="middle" x="251" y="-109.8" font-family="Helvetica,sans-Serif" font-size="14.00" fill="#ffffff">FinanceJava</text>
</g>
<!-- JavaCommon&#45;&gt;FinanceJava -->
<g id="edge16" class="edge">
<title>JavaCommon&#45;&gt;FinanceJava</title>
<path fill="none" stroke="#ffffff" d="M886.0459,-167.9551C886.0459,-160.251 886.0459,-153 886.0459,-153 886.0459,-153 261.9678,-153 261.9678,-153 261.9678,-153 261.9678,-142.1299 261.9678,-142.1299"/>
<polygon fill="#ffffff" stroke="#ffffff" points="265.4679,-142.1299 261.9678,-132.1299 258.4679,-142.1299 265.4679,-142.1299"/>
</g>
<!-- SpaceJava -->
<g id="node12" class="node">
<title>SpaceJava</title>
<polygon fill="none" stroke="#ffffff" points="142.769,-132 57.231,-132 57.231,-96 142.769,-96 142.769,-132"/>
<text text-anchor="middle" x="100" y="-109.8" font-family="Helvetica,sans-Serif" font-size="14.00" fill="#ffffff">SpaceJava</text>
</g>
<!-- JavaCommon&#45;&gt;SpaceJava -->
<g id="edge17" class="edge">
<title>JavaCommon&#45;&gt;SpaceJava</title>
<path fill="none" stroke="#ffffff" d="M865.667,-167.8568C865.667,-161.5389 865.667,-156 865.667,-156 865.667,-156 133.7626,-156 133.7626,-156 133.7626,-156 133.7626,-142.0555 133.7626,-142.0555"/>
<polygon fill="#ffffff" stroke="#ffffff" points="137.2627,-142.0555 133.7626,-132.0555 130.2627,-142.0556 137.2627,-142.0555"/>
</g>
<!-- AletheiaWareCommonAndroid -->
<g id="node3" class="node">
<title>AletheiaWareCommonAndroid</title>
<polygon fill="none" stroke="#ffffff" points="845.0766,-132 640.9234,-132 640.9234,-96 845.0766,-96 845.0766,-132"/>
<text text-anchor="middle" x="743" y="-109.8" font-family="Helvetica,sans-Serif" font-size="14.00" fill="#ffffff">AletheiaWareCommonAndroid</text>
</g>
<!-- AletheiaWareCommonJava&#45;&gt;AletheiaWareCommonAndroid -->
<g id="edge1" class="edge">
<title>AletheiaWareCommonJava&#45;&gt;AletheiaWareCommonAndroid</title>
<path fill="none" stroke="#ffffff" d="M780.4734,-167.8314C780.4734,-167.8314 780.4734,-142.4133 780.4734,-142.4133"/>
<polygon fill="#ffffff" stroke="#ffffff" points="783.9735,-142.4132 780.4734,-132.4133 776.9735,-142.4133 783.9735,-142.4132"/>
</g>
<!-- AletheiaWareCommonJava&#45;&gt;BCJava -->
<g id="edge18" class="edge">
<title>AletheiaWareCommonJava&#45;&gt;BCJava</title>
<path fill="none" stroke="#ffffff" d="M734,-167.8701C734,-157.6855 734,-147 734,-147 734,-147 423,-147 423,-147 423,-147 423,-142.0449 423,-142.0449"/>
<polygon fill="#ffffff" stroke="#ffffff" points="426.5001,-142.0448 423,-132.0449 419.5001,-142.0449 426.5001,-142.0448"/>
</g>
<!-- AletheiaWareCommonJava&#45;&gt;AliasJava -->
<g id="edge19" class="edge">
<title>AletheiaWareCommonJava&#45;&gt;AliasJava</title>
<path fill="none" stroke="#ffffff" d="M641.003,-186C618.9318,-186 601.6528,-186 601.6528,-186 601.6528,-186 601.6528,-142.1686 601.6528,-142.1686"/>
<polygon fill="#ffffff" stroke="#ffffff" points="605.1529,-142.1686 601.6528,-132.1686 598.1529,-142.1687 605.1529,-142.1686"/>
</g>
<!-- AletheiaWareCommonJava&#45;&gt;SpaceJava -->
<g id="edge20" class="edge">
<title>AletheiaWareCommonJava&#45;&gt;SpaceJava</title>
<path fill="none" stroke="#ffffff" d="M687.5266,-167.8408C687.5266,-162.9567 687.5266,-159 687.5266,-159 687.5266,-159 130.8054,-159 130.8054,-159 130.8054,-159 130.8054,-142.0439 130.8054,-142.0439"/>
<polygon fill="#ffffff" stroke="#ffffff" points="134.3055,-142.0439 130.8054,-132.0439 127.3055,-142.044 134.3055,-142.0439"/>
</g>
<!-- BCAndroid -->
<g id="node6" class="node">
<title>BCAndroid</title>
<polygon fill="none" stroke="#ffffff" points="455.7036,-60 372.2964,-60 372.2964,-24 455.7036,-24 455.7036,-60"/>
<text text-anchor="middle" x="414" y="-37.8" font-family="Helvetica,sans-Serif" font-size="14.00" fill="#ffffff">BCAndroid</text>
</g>
<!-- AletheiaWareCommonAndroid&#45;&gt;BCAndroid -->
<g id="edge29" class="edge">
<title>AletheiaWareCommonAndroid&#45;&gt;BCAndroid</title>
<path fill="none" stroke="#ffffff" d="M777.096,-95.8314C777.096,-74.502 777.096,-42 777.096,-42 777.096,-42 466.0064,-42 466.0064,-42"/>
<polygon fill="#ffffff" stroke="#ffffff" points="466.0065,-38.5001 456.0064,-42 466.0064,-45.5001 466.0065,-38.5001"/>
</g>
<!-- SpaceAndroid -->
<g id="node13" class="node">
<title>SpaceAndroid</title>
<polygon fill="none" stroke="#ffffff" points="151.9512,-60 48.0488,-60 48.0488,-24 151.9512,-24 151.9512,-60"/>
<text text-anchor="middle" x="100" y="-37.8" font-family="Helvetica,sans-Serif" font-size="14.00" fill="#ffffff">SpaceAndroid</text>
</g>
<!-- AletheiaWareCommonAndroid&#45;&gt;SpaceAndroid -->
<g id="edge30" class="edge">
<title>AletheiaWareCommonAndroid&#45;&gt;SpaceAndroid</title>
<path fill="none" stroke="#ffffff" d="M708.904,-95.5782C708.904,-86.7209 708.904,-78 708.904,-78 708.904,-78 147.3049,-78 147.3049,-78 147.3049,-78 147.3049,-70.4218 147.3049,-70.4218"/>
<polygon fill="#ffffff" stroke="#ffffff" points="150.805,-70.4218 147.3049,-60.4218 143.805,-70.4219 150.805,-70.4218"/>
</g>
<!-- BC -->
<g id="node4" class="node">
<title>BC</title>
<polygon fill="none" stroke="#ffffff" points="441,-204 387,-204 387,-168 441,-168 441,-204"/>
<text text-anchor="middle" x="414" y="-181.8" font-family="Helvetica,sans-Serif" font-size="14.00" fill="#ffffff">BC</text>
</g>
<!-- BC&#45;&gt;BCJava -->
<g id="edge2" class="edge">
<title>BC&#45;&gt;BCJava</title>
<path fill="none" stroke="#ffffff" d="M414,-167.8314C414,-167.8314 414,-142.4133 414,-142.4133"/>
<polygon fill="#ffffff" stroke="#ffffff" points="417.5001,-142.4132 414,-132.4133 410.5001,-142.4133 417.5001,-142.4132"/>
</g>
<!-- Alias -->
<g id="node7" class="node">
<title>Alias</title>
<polygon fill="none" stroke="#ffffff" points="598,-204 544,-204 544,-168 598,-168 598,-204"/>
<text text-anchor="middle" x="571" y="-181.8" font-family="Helvetica,sans-Serif" font-size="14.00" fill="#ffffff">Alias</text>
</g>
<!-- BC&#45;&gt;Alias -->
<g id="edge8" class="edge">
<title>BC&#45;&gt;Alias</title>
<path fill="none" stroke="#ffffff" d="M441.3473,-186C441.3473,-186 533.9661,-186 533.9661,-186"/>
<polygon fill="#ffffff" stroke="#ffffff" points="533.9661,-189.5001 543.9661,-186 533.966,-182.5001 533.9661,-189.5001"/>
</g>
<!-- Finance -->
<g id="node9" class="node">
<title>Finance</title>
<polygon fill="none" stroke="#ffffff" points="283.8069,-204 218.1931,-204 218.1931,-168 283.8069,-168 283.8069,-204"/>
<text text-anchor="middle" x="251" y="-181.8" font-family="Helvetica,sans-Serif" font-size="14.00" fill="#ffffff">Finance</text>
</g>
<!-- BC&#45;&gt;Finance -->
<g id="edge9" class="edge">
<title>BC&#45;&gt;Finance</title>
<path fill="none" stroke="#ffffff" d="M386.7175,-186C386.7175,-186 294.0039,-186 294.0039,-186"/>
<polygon fill="#ffffff" stroke="#ffffff" points="294.0039,-182.5001 284.0039,-186 294.0038,-189.5001 294.0039,-182.5001"/>
</g>
<!-- Space -->
<g id="node11" class="node">
<title>Space</title>
<polygon fill="none" stroke="#ffffff" points="127.6971,-204 72.3029,-204 72.3029,-168 127.6971,-168 127.6971,-204"/>
<text text-anchor="middle" x="100" y="-181.8" font-family="Helvetica,sans-Serif" font-size="14.00" fill="#ffffff">Space</text>
</g>
<!-- BC&#45;&gt;Space -->
<g id="edge10" class="edge">
<title>BC&#45;&gt;Space</title>
<path fill="none" stroke="#ffffff" d="M405,-167.92C405,-166.1536 405,-165 405,-165 405,-165 113.9241,-165 113.9241,-165 113.9241,-165 113.9241,-165.292 113.9241,-165.292"/>
<polygon fill="#ffffff" stroke="#ffffff" points="110.4245,-157.9198 113.9241,-167.92 117.4245,-157.9201 110.4245,-157.9198"/>
</g>
<!-- BCJava&#45;&gt;BCAndroid -->
<g id="edge3" class="edge">
<title>BCJava&#45;&gt;BCAndroid</title>
<path fill="none" stroke="#ffffff" d="M414,-95.8314C414,-95.8314 414,-70.4133 414,-70.4133"/>
<polygon fill="#ffffff" stroke="#ffffff" points="417.5001,-70.4132 414,-60.4133 410.5001,-70.4133 417.5001,-70.4132"/>
</g>
<!-- BCJava&#45;&gt;AliasJava -->
<g id="edge21" class="edge">
<title>BCJava&#45;&gt;AliasJava</title>
<path fill="none" stroke="#ffffff" d="M446.5305,-120C446.5305,-120 522.9822,-120 522.9822,-120"/>
<polygon fill="#ffffff" stroke="#ffffff" points="522.9822,-123.5001 532.9822,-120 522.9821,-116.5001 522.9822,-123.5001"/>
</g>
<!-- BCJava&#45;&gt;FinanceJava -->
<g id="edge22" class="edge">
<title>BCJava&#45;&gt;FinanceJava</title>
<path fill="none" stroke="#ffffff" d="M381.4063,-120C381.4063,-120 308.9911,-120 308.9911,-120"/>
<polygon fill="#ffffff" stroke="#ffffff" points="308.9912,-116.5001 298.9911,-120 308.9911,-123.5001 308.9912,-116.5001"/>
</g>
<!-- BCJava&#45;&gt;SpaceJava -->
<g id="edge23" class="edge">
<title>BCJava&#45;&gt;SpaceJava</title>
<path fill="none" stroke="#ffffff" d="M396,-132.08C396,-133.8464 396,-135 396,-135 396,-135 139.6771,-135 139.6771,-135 139.6771,-135 139.6771,-134.708 139.6771,-134.708"/>
<polygon fill="#ffffff" stroke="#ffffff" points="143.1774,-142.0799 139.6771,-132.08 136.1774,-142.0802 143.1774,-142.0799"/>
</g>
<!-- BCAndroid&#45;&gt;SpaceAndroid -->
<g id="edge31" class="edge">
<title>BCAndroid&#45;&gt;SpaceAndroid</title>
<path fill="none" stroke="#ffffff" d="M371.9784,-42C371.9784,-42 162.2225,-42 162.2225,-42"/>
<polygon fill="#ffffff" stroke="#ffffff" points="162.2225,-38.5001 152.2225,-42 162.2225,-45.5001 162.2225,-38.5001"/>
</g>
<!-- Alias&#45;&gt;AliasJava -->
<g id="edge4" class="edge">
<title>Alias&#45;&gt;AliasJava</title>
<path fill="none" stroke="#ffffff" d="M580,-167.8314C580,-167.8314 580,-142.4133 580,-142.4133"/>
<polygon fill="#ffffff" stroke="#ffffff" points="583.5001,-142.4132 580,-132.4133 576.5001,-142.4133 583.5001,-142.4132"/>
</g>
<!-- Alias&#45;&gt;Space -->
<g id="edge11" class="edge">
<title>Alias&#45;&gt;Space</title>
<path fill="none" stroke="#ffffff" d="M562,-167.8097C562,-164.4624 562,-162 562,-162 562,-162 100,-162 100,-162 100,-162 100,-162.581 100,-162.581"/>
<polygon fill="#ffffff" stroke="#ffffff" points="96.5002,-157.8097 100,-167.8097 103.5002,-157.8098 96.5002,-157.8097"/>
</g>
<!-- AliasJava&#45;&gt;BCAndroid -->
<g id="edge24" class="edge">
<title>AliasJava&#45;&gt;BCAndroid</title>
<path fill="none" stroke="#ffffff" d="M532.7591,-108C497.6932,-108 451.1809,-108 451.1809,-108 451.1809,-108 451.1809,-70.0348 451.1809,-70.0348"/>
<polygon fill="#ffffff" stroke="#ffffff" points="454.681,-70.0348 451.1809,-60.0348 447.681,-70.0348 454.681,-70.0348"/>
</g>
<!-- AliasJava&#45;&gt;FinanceJava -->
<g id="edge25" class="edge">
<title>AliasJava&#45;&gt;FinanceJava</title>
<path fill="none" stroke="#ffffff" d="M536.6943,-132.1903C536.6943,-135.5376 536.6943,-138 536.6943,-138 536.6943,-138 291.2964,-138 291.2964,-138 291.2964,-138 291.2964,-137.419 291.2964,-137.419"/>
<polygon fill="#ffffff" stroke="#ffffff" points="294.7966,-142.1902 291.2964,-132.1903 287.7966,-142.1903 294.7966,-142.1902"/>
</g>
<!-- AliasJava&#45;&gt;SpaceJava -->
<g id="edge26" class="edge">
<title>AliasJava&#45;&gt;SpaceJava</title>
<path fill="none" stroke="#ffffff" d="M540.3472,-132.4218C540.3472,-141.2791 540.3472,-150 540.3472,-150 540.3472,-150 136.7198,-150 136.7198,-150 136.7198,-150 136.7198,-142.4218 136.7198,-142.4218"/>
<polygon fill="#ffffff" stroke="#ffffff" points="140.2199,-142.4218 136.7198,-132.4218 133.2199,-142.4219 140.2199,-142.4218"/>
</g>
<!-- Finance&#45;&gt;FinanceJava -->
<g id="edge5" class="edge">
<title>Finance&#45;&gt;FinanceJava</title>
<path fill="none" stroke="#ffffff" d="M240.0322,-167.8314C240.0322,-167.8314 240.0322,-142.4133 240.0322,-142.4133"/>
<polygon fill="#ffffff" stroke="#ffffff" points="243.5323,-142.4132 240.0322,-132.4133 236.5323,-142.4133 243.5323,-142.4132"/>
</g>
<!-- Finance&#45;&gt;Space -->
<g id="edge12" class="edge">
<title>Finance&#45;&gt;Space</title>
<path fill="none" stroke="#ffffff" d="M217.8624,-186C217.8624,-186 137.9943,-186 137.9943,-186"/>
<polygon fill="#ffffff" stroke="#ffffff" points="137.9943,-182.5001 127.9943,-186 137.9942,-189.5001 137.9943,-182.5001"/>
</g>
<!-- FinanceJava&#45;&gt;BCAndroid -->
<g id="edge27" class="edge">
<title>FinanceJava&#45;&gt;BCAndroid</title>
<path fill="none" stroke="#ffffff" d="M298.9257,-108C334.4821,-108 376.8191,-108 376.8191,-108 376.8191,-108 376.8191,-70.0348 376.8191,-70.0348"/>
<polygon fill="#ffffff" stroke="#ffffff" points="380.3192,-70.0348 376.8191,-60.0348 373.3192,-70.0348 380.3192,-70.0348"/>
</g>
<!-- FinanceJava&#45;&gt;SpaceJava -->
<g id="edge28" class="edge">
<title>FinanceJava&#45;&gt;SpaceJava</title>
<path fill="none" stroke="#ffffff" d="M203.2227,-114C203.2227,-114 152.8666,-114 152.8666,-114"/>
<polygon fill="#ffffff" stroke="#ffffff" points="152.8667,-110.5001 142.8666,-114 152.8666,-117.5001 152.8667,-110.5001"/>
</g>
<!-- Space&#45;&gt;SpaceJava -->
<g id="edge6" class="edge">
<title>Space&#45;&gt;SpaceJava</title>
<path fill="none" stroke="#ffffff" d="M86.0759,-167.8314C86.0759,-167.8314 86.0759,-142.4133 86.0759,-142.4133"/>
<polygon fill="#ffffff" stroke="#ffffff" points="89.576,-142.4132 86.0759,-132.4133 82.576,-142.4133 89.576,-142.4132"/>
</g>
<!-- SpaceJava&#45;&gt;SpaceAndroid -->
<g id="edge7" class="edge">
<title>SpaceJava&#45;&gt;SpaceAndroid</title>
<path fill="none" stroke="#ffffff" d="M100,-95.8314C100,-95.8314 100,-70.4133 100,-70.4133"/>
<polygon fill="#ffffff" stroke="#ffffff" points="103.5001,-70.4132 100,-60.4133 96.5001,-70.4133 103.5001,-70.4132"/>
</g>
</g>
</svg>
