solid OpenSCAD_Model
  facet normal 0 0 1
    outer loop
      vertex -7.5 3.99038 -4.5
      vertex -1.05556 8.49038 -4.5
      vertex -4.90192 8.49038 -4.5
    endloop
  endfacet
  facet normal -0 0 1
    outer loop
      vertex -7.5 3.99038 -4.5
      vertex -9.54594 0 -4.5
      vertex -1.05556 8.49038 -4.5
    endloop
  endfacet
  facet normal 0 -0 1
    outer loop
      vertex -9.54594 0 -4.5
      vertex -7.5 3.99038 -4.5
      vertex -9.80385 0 -4.5
    endloop
  endfacet
  facet normal 0 0 1
    outer loop
      vertex -1.05556 -8.49038 -4.5
      vertex -7.5 -3.99038 -4.5
      vertex -4.90192 -8.49038 -4.5
    endloop
  endfacet
  facet normal 0 0 1
    outer loop
      vertex -9.54594 0 -4.5
      vertex -7.5 -3.99038 -4.5
      vertex -1.05556 -8.49038 -4.5
    endloop
  endfacet
  facet normal 0 0 1
    outer loop
      vertex -7.5 -3.99038 -4.5
      vertex -9.54594 0 -4.5
      vertex -9.80385 0 -4.5
    endloop
  endfacet
  facet normal 0 0 1
    outer loop
      vertex 7.5 3.99038 -4.5
      vertex 9.54594 0 -4.5
      vertex 9.80385 0 -4.5
    endloop
  endfacet
  facet normal -0 0 1
    outer loop
      vertex 1.05556 8.49038 -4.5
      vertex 7.5 3.99038 -4.5
      vertex 4.90192 8.49038 -4.5
    endloop
  endfacet
  facet normal 0 0 1
    outer loop
      vertex 7.5 3.99038 -4.5
      vertex 1.05556 8.49038 -4.5
      vertex 9.54594 0 -4.5
    endloop
  endfacet
  facet normal -0 0 1
    outer loop
      vertex 9.54594 0 -4.5
      vertex 7.5 -3.99038 -4.5
      vertex 9.80385 0 -4.5
    endloop
  endfacet
  facet normal 0 0 1
    outer loop
      vertex 1.05556 -8.49038 -4.5
      vertex 7.5 -3.99038 -4.5
      vertex 9.54594 0 -4.5
    endloop
  endfacet
  facet normal 0 0 1
    outer loop
      vertex 7.5 -3.99038 -4.5
      vertex 1.05556 -8.49038 -4.5
      vertex 4.90192 -8.49038 -4.5
    endloop
  endfacet
  facet normal 0 0 -1
    outer loop
      vertex 7.5 -3.99038 -22.5
      vertex 7.5 3.99038 -22.5
      vertex 9.80385 0 -22.5
    endloop
  endfacet
  facet normal 0 0 -1
    outer loop
      vertex -7.5 -3.99038 -22.5
      vertex 7.5 -3.99038 -22.5
      vertex 4.90192 -8.49038 -22.5
    endloop
  endfacet
  facet normal 0 0 -1
    outer loop
      vertex 7.5 -3.99038 -22.5
      vertex -7.5 -3.99038 -22.5
      vertex 7.5 3.99038 -22.5
    endloop
  endfacet
  facet normal 0 0 -1
    outer loop
      vertex -7.5 -3.99038 -22.5
      vertex 4.90192 -8.49038 -22.5
      vertex -4.90192 -8.49038 -22.5
    endloop
  endfacet
  facet normal 0 0 -1
    outer loop
      vertex -7.5 3.99038 -22.5
      vertex 7.5 3.99038 -22.5
      vertex -7.5 -3.99038 -22.5
    endloop
  endfacet
  facet normal 0 0 -1
    outer loop
      vertex 7.5 3.99038 -22.5
      vertex -7.5 3.99038 -22.5
      vertex 4.90192 8.49038 -22.5
    endloop
  endfacet
  facet normal -0 0 -1
    outer loop
      vertex 4.90192 8.49038 -22.5
      vertex -7.5 3.99038 -22.5
      vertex -4.90192 8.49038 -22.5
    endloop
  endfacet
  facet normal 0 -0 -1
    outer loop
      vertex -7.5 3.99038 -22.5
      vertex -7.5 -3.99038 -22.5
      vertex -9.80385 0 -22.5
    endloop
  endfacet
  facet normal -0.774597 0.447213 0.447214
    outer loop
      vertex -15 0 -13.5
      vertex -7.5 3.99038 -4.5
      vertex -7.5 12.9904 -13.5
    endloop
  endfacet
  facet normal -0.774597 0.447214 0.447213
    outer loop
      vertex -7.5 3.99038 -4.5
      vertex -15 0 -13.5
      vertex -9.80385 0 -4.5
    endloop
  endfacet
  facet normal 0 0.894427 0.447214
    outer loop
      vertex 4.90192 8.49038 -4.5
      vertex 0 9.54594 -6.61112
      vertex 1.05556 8.49038 -4.5
    endloop
  endfacet
  facet normal -7.61355e-07 0.894426 0.447215
    outer loop
      vertex 0 9.54594 -6.61112
      vertex 4.90192 8.49038 -4.5
      vertex 7.5 12.9904 -13.5
    endloop
  endfacet
  facet normal 0 0.894427 0.447214
    outer loop
      vertex 0 9.54594 -6.61112
      vertex -4.90192 8.49038 -4.5
      vertex -1.05556 8.49038 -4.5
    endloop
  endfacet
  facet normal -0 0.894426 0.447216
    outer loop
      vertex -7.5 12.9904 -13.5
      vertex 0 9.54594 -6.61112
      vertex 7.5 12.9904 -13.5
    endloop
  endfacet
  facet normal 7.61355e-07 0.894426 0.447215
    outer loop
      vertex 0 9.54594 -6.61112
      vertex -7.5 12.9904 -13.5
      vertex -4.90192 8.49038 -4.5
    endloop
  endfacet
  facet normal -0.774597 -0.447214 0.447213
    outer loop
      vertex -15 0 -13.5
      vertex -7.5 -3.99038 -4.5
      vertex -9.80385 0 -4.5
    endloop
  endfacet
  facet normal -0.774597 -0.447213 0.447214
    outer loop
      vertex -7.5 -3.99038 -4.5
      vertex -15 0 -13.5
      vertex -7.5 -12.9904 -13.5
    endloop
  endfacet
  facet normal 0 -0.894426 -0.447215
    outer loop
      vertex -4.90192 -8.49038 -22.5
      vertex 7.5 -12.9904 -13.5
      vertex -7.5 -12.9904 -13.5
    endloop
  endfacet
  facet normal 0 -0.894426 -0.447215
    outer loop
      vertex 7.5 -12.9904 -13.5
      vertex -4.90192 -8.49038 -22.5
      vertex 4.90192 -8.49038 -22.5
    endloop
  endfacet
  facet normal 0.774596 0.447214 0.447215
    outer loop
      vertex 7.5 12.9904 -13.5
      vertex 4.90192 8.49038 -4.5
      vertex 7.5 3.99038 -4.5
    endloop
  endfacet
  facet normal -0.774597 0.447214 -0.447213
    outer loop
      vertex -15 0 -13.5
      vertex -7.5 3.99038 -22.5
      vertex -9.80385 0 -22.5
    endloop
  endfacet
  facet normal -0.774597 0.447213 -0.447214
    outer loop
      vertex -7.5 3.99038 -22.5
      vertex -15 0 -13.5
      vertex -7.5 12.9904 -13.5
    endloop
  endfacet
  facet normal 0.774597 0.447213 -0.447214
    outer loop
      vertex 15 0 -13.5
      vertex 7.5 3.99038 -22.5
      vertex 7.5 12.9904 -13.5
    endloop
  endfacet
  facet normal 0.774597 0.447214 -0.447213
    outer loop
      vertex 7.5 3.99038 -22.5
      vertex 15 0 -13.5
      vertex 9.80385 0 -22.5
    endloop
  endfacet
  facet normal 0.774597 0.447214 0.447213
    outer loop
      vertex 15 0 -13.5
      vertex 7.5 3.99038 -4.5
      vertex 9.80385 0 -4.5
    endloop
  endfacet
  facet normal 0.774597 0.447213 0.447214
    outer loop
      vertex 7.5 3.99038 -4.5
      vertex 15 0 -13.5
      vertex 7.5 12.9904 -13.5
    endloop
  endfacet
  facet normal 0.774596 -0.447214 -0.447215
    outer loop
      vertex 7.5 -12.9904 -13.5
      vertex 4.90192 -8.49038 -22.5
      vertex 7.5 -3.99038 -22.5
    endloop
  endfacet
  facet normal 0 -0.894427 0.447214
    outer loop
      vertex -4.90192 -8.49038 -4.5
      vertex 0 -9.54594 -6.61112
      vertex -1.05556 -8.49038 -4.5
    endloop
  endfacet
  facet normal 7.61355e-07 -0.894426 0.447215
    outer loop
      vertex 0 -9.54594 -6.61112
      vertex -4.90192 -8.49038 -4.5
      vertex -7.5 -12.9904 -13.5
    endloop
  endfacet
  facet normal 0 -0.894427 0.447214
    outer loop
      vertex 0 -9.54594 -6.61112
      vertex 4.90192 -8.49038 -4.5
      vertex 1.05556 -8.49038 -4.5
    endloop
  endfacet
  facet normal 0 -0.894426 0.447216
    outer loop
      vertex 7.5 -12.9904 -13.5
      vertex 0 -9.54594 -6.61112
      vertex -7.5 -12.9904 -13.5
    endloop
  endfacet
  facet normal -7.61355e-07 -0.894426 0.447215
    outer loop
      vertex 0 -9.54594 -6.61112
      vertex 7.5 -12.9904 -13.5
      vertex 4.90192 -8.49038 -4.5
    endloop
  endfacet
  facet normal 0.774597 -0.447214 -0.447213
    outer loop
      vertex 15 0 -13.5
      vertex 7.5 -3.99038 -22.5
      vertex 9.80385 0 -22.5
    endloop
  endfacet
  facet normal 0.774597 -0.447213 -0.447214
    outer loop
      vertex 7.5 -3.99038 -22.5
      vertex 15 0 -13.5
      vertex 7.5 -12.9904 -13.5
    endloop
  endfacet
  facet normal 0.774597 -0.447214 0.447213
    outer loop
      vertex 7.5 -3.99038 -4.5
      vertex 15 0 -13.5
      vertex 9.80385 0 -4.5
    endloop
  endfacet
  facet normal 0.774597 -0.447213 0.447214
    outer loop
      vertex 15 0 -13.5
      vertex 7.5 -3.99038 -4.5
      vertex 7.5 -12.9904 -13.5
    endloop
  endfacet
  facet normal -0.774596 0.447214 0.447215
    outer loop
      vertex -7.5 12.9904 -13.5
      vertex -7.5 3.99038 -4.5
      vertex -4.90192 8.49038 -4.5
    endloop
  endfacet
  facet normal -0.774597 -0.447214 -0.447213
    outer loop
      vertex -7.5 -3.99038 -22.5
      vertex -15 0 -13.5
      vertex -9.80385 0 -22.5
    endloop
  endfacet
  facet normal -0.774597 -0.447213 -0.447214
    outer loop
      vertex -15 0 -13.5
      vertex -7.5 -3.99038 -22.5
      vertex -7.5 -12.9904 -13.5
    endloop
  endfacet
  facet normal 0 0.894426 -0.447215
    outer loop
      vertex 4.90192 8.49038 -22.5
      vertex -7.5 12.9904 -13.5
      vertex 7.5 12.9904 -13.5
    endloop
  endfacet
  facet normal 0 0.894426 -0.447215
    outer loop
      vertex -7.5 12.9904 -13.5
      vertex 4.90192 8.49038 -22.5
      vertex -4.90192 8.49038 -22.5
    endloop
  endfacet
  facet normal -0.774596 -0.447214 0.447215
    outer loop
      vertex -7.5 -3.99038 -4.5
      vertex -7.5 -12.9904 -13.5
      vertex -4.90192 -8.49038 -4.5
    endloop
  endfacet
  facet normal 0.774596 -0.447214 0.447215
    outer loop
      vertex 7.5 -3.99038 -4.5
      vertex 4.90192 -8.49038 -4.5
      vertex 7.5 -12.9904 -13.5
    endloop
  endfacet
  facet normal 0.774596 0.447214 -0.447215
    outer loop
      vertex 7.5 3.99038 -22.5
      vertex 4.90192 8.49038 -22.5
      vertex 7.5 12.9904 -13.5
    endloop
  endfacet
  facet normal -0.774596 -0.447214 -0.447215
    outer loop
      vertex -4.90192 -8.49038 -22.5
      vertex -7.5 -12.9904 -13.5
      vertex -7.5 -3.99038 -22.5
    endloop
  endfacet
  facet normal -0.774596 0.447214 -0.447215
    outer loop
      vertex -4.90192 8.49038 -22.5
      vertex -7.5 3.99038 -22.5
      vertex -7.5 12.9904 -13.5
    endloop
  endfacet
  facet normal 0 0 1
    outer loop
      vertex 0 9.54594 6.75
      vertex 6.36396 2.5 6.75
      vertex 9.54594 0 6.75
    endloop
  endfacet
  facet normal 0 0 1
    outer loop
      vertex 0 9.54594 6.75
      vertex 0 8.86396 6.75
      vertex 6.36396 2.5 6.75
    endloop
  endfacet
  facet normal 0 0 1
    outer loop
      vertex 0 9.54594 6.75
      vertex -6.36396 2.5 6.75
      vertex 0 8.86396 6.75
    endloop
  endfacet
  facet normal 0 -0 1
    outer loop
      vertex -6.36396 2.5 6.75
      vertex 0 9.54594 6.75
      vertex -9.54594 0 6.75
    endloop
  endfacet
  facet normal 0 0 1
    outer loop
      vertex 0 -3.86396 6.75
      vertex 9.54594 0 6.75
      vertex 6.36396 2.5 6.75
    endloop
  endfacet
  facet normal -0 0 1
    outer loop
      vertex 0 -3.86396 6.75
      vertex 0 -9.54594 6.75
      vertex 9.54594 0 6.75
    endloop
  endfacet
  facet normal -0 0 1
    outer loop
      vertex -9.54594 0 6.75
      vertex 0 -3.86396 6.75
      vertex -6.36396 2.5 6.75
    endloop
  endfacet
  facet normal 0 0 1
    outer loop
      vertex 0 -3.86396 6.75
      vertex -9.54594 0 6.75
      vertex 0 -9.54594 6.75
    endloop
  endfacet
  facet normal 0.707107 0.707107 0
    outer loop
      vertex 0 9.54594 6.75
      vertex 1.05556 8.49038 -4.5
      vertex 0 9.54594 -6.61112
    endloop
  endfacet
  facet normal 0.707107 0.707107 0
    outer loop
      vertex 9.54594 0 6.75
      vertex 1.05556 8.49038 -4.5
      vertex 0 9.54594 6.75
    endloop
  endfacet
  facet normal 0.707107 0.707107 0
    outer loop
      vertex 1.05556 8.49038 -4.5
      vertex 9.54594 0 6.75
      vertex 9.54594 0 -4.5
    endloop
  endfacet
  facet normal -0.707107 -0.707107 0
    outer loop
      vertex -1.05556 -8.49038 -4.5
      vertex -9.54594 0 6.75
      vertex -9.54594 0 -4.5
    endloop
  endfacet
  facet normal -0.707107 -0.707107 1.16962e-17
    outer loop
      vertex -1.05556 -8.49038 -4.5
      vertex 0 -9.54594 6.75
      vertex -9.54594 0 6.75
    endloop
  endfacet
  facet normal -0.707107 -0.707107 -0
    outer loop
      vertex 0 -9.54594 6.75
      vertex -1.05556 -8.49038 -4.5
      vertex 0 -9.54594 -6.61112
    endloop
  endfacet
  facet normal -0.707107 0.707107 0
    outer loop
      vertex -1.05556 8.49038 -4.5
      vertex 0 9.54594 6.75
      vertex 0 9.54594 -6.61112
    endloop
  endfacet
  facet normal -0.707107 0.707107 0
    outer loop
      vertex -9.54594 0 6.75
      vertex -1.05556 8.49038 -4.5
      vertex -9.54594 0 -4.5
    endloop
  endfacet
  facet normal -0.707107 0.707107 1.16962e-17
    outer loop
      vertex -1.05556 8.49038 -4.5
      vertex -9.54594 0 6.75
      vertex 0 9.54594 6.75
    endloop
  endfacet
  facet normal 0.707107 -0.707107 0
    outer loop
      vertex 9.54594 0 6.75
      vertex 1.05556 -8.49038 -4.5
      vertex 9.54594 0 -4.5
    endloop
  endfacet
  facet normal 0.707107 -0.707107 2.33924e-17
    outer loop
      vertex 0 -9.54594 6.75
      vertex 1.05556 -8.49038 -4.5
      vertex 9.54594 0 6.75
    endloop
  endfacet
  facet normal 0.707107 -0.707107 0
    outer loop
      vertex 1.05556 -8.49038 -4.5
      vertex 0 -9.54594 6.75
      vertex 0 -9.54594 -6.61112
    endloop
  endfacet
  facet normal 0 0 1
    outer loop
      vertex -4.5 4.36396 15.75
      vertex -6.36396 2.5 15.75
      vertex -4.5 0.63604 15.75
    endloop
  endfacet
  facet normal 0 0 1
    outer loop
      vertex 2.88604 -0.977922 15.75
      vertex -2.88604 -0.977922 15.75
      vertex 0 -3.86396 15.75
    endloop
  endfacet
  facet normal 0 0 1
    outer loop
      vertex 4.5 4.36396 15.75
      vertex 4.5 0.63604 15.75
      vertex 6.36396 2.5 15.75
    endloop
  endfacet
  facet normal 0.707107 0.707107 0
    outer loop
      vertex 4.5 4.36396 15.75
      vertex 6.36396 2.5 15.75
      vertex 4.5 4.36396 10.4081
    endloop
  endfacet
  facet normal 0.707107 0.707107 0
    outer loop
      vertex 3.86396 5 9.77208
      vertex 0 8.86396 6.75
      vertex 0 8.86396 13.636
    endloop
  endfacet
  facet normal 0.707107 0.707107 0
    outer loop
      vertex 3.86396 5 9.77208
      vertex 6.36396 2.5 6.75
      vertex 0 8.86396 6.75
    endloop
  endfacet
  facet normal 0.707107 0.707107 1.78815e-16
    outer loop
      vertex 4.5 4.36396 10.4081
      vertex 6.36396 2.5 6.75
      vertex 3.86396 5 9.77208
    endloop
  endfacet
  facet normal 0.707107 0.707107 -0
    outer loop
      vertex 6.36396 2.5 6.75
      vertex 4.5 4.36396 10.4081
      vertex 6.36396 2.5 15.75
    endloop
  endfacet
  facet normal -0.707107 -0.707107 0
    outer loop
      vertex -6.36396 2.5 6.75
      vertex -4.5 0.63604 14.136
      vertex -6.36396 2.5 15.75
    endloop
  endfacet
  facet normal -0.707107 -0.707107 -5.34452e-17
    outer loop
      vertex 0 -3.86396 6.75
      vertex -4.5 0.63604 14.136
      vertex -6.36396 2.5 6.75
    endloop
  endfacet
  facet normal -0.707107 -0.707107 -0
    outer loop
      vertex 0 -3.86396 15.75
      vertex -4.5 0.63604 14.136
      vertex 0 -3.86396 6.75
    endloop
  endfacet
  facet normal -0.707107 -0.707107 -1.36622e-06
    outer loop
      vertex -4.5 0.63604 14.136
      vertex 0 -3.86396 15.75
      vertex -2.88604 -0.977922 15.75
    endloop
  endfacet
  facet normal -0.707107 -0.707107 0
    outer loop
      vertex -6.36396 2.5 15.75
      vertex -4.5 0.63604 14.136
      vertex -4.5 0.63604 15.75
    endloop
  endfacet
  facet normal -0.707107 0.707107 0
    outer loop
      vertex 0 8.86396 6.75
      vertex -3.86396 5 9.77208
      vertex 0 8.86396 13.636
    endloop
  endfacet
  facet normal -0.707107 0.707107 0
    outer loop
      vertex -6.36396 2.5 6.75
      vertex -3.86396 5 9.77208
      vertex 0 8.86396 6.75
    endloop
  endfacet
  facet normal -0.707107 0.707107 0
    outer loop
      vertex -6.36396 2.5 6.75
      vertex -4.5 4.36396 10.4081
      vertex -3.86396 5 9.77208
    endloop
  endfacet
  facet normal -0.707107 0.707107 0
    outer loop
      vertex -6.36396 2.5 15.75
      vertex -4.5 4.36396 10.4081
      vertex -6.36396 2.5 6.75
    endloop
  endfacet
  facet normal -0.707107 0.707107 0
    outer loop
      vertex -4.5 4.36396 10.4081
      vertex -6.36396 2.5 15.75
      vertex -4.5 4.36396 15.75
    endloop
  endfacet
  facet normal 0.707107 -0.707107 0
    outer loop
      vertex 4.5 0.63604 14.136
      vertex 6.36396 2.5 15.75
      vertex 4.5 0.63604 15.75
    endloop
  endfacet
  facet normal 0.707107 -0.707107 0
    outer loop
      vertex 6.36396 2.5 15.75
      vertex 4.5 0.63604 14.136
      vertex 6.36396 2.5 6.75
    endloop
  endfacet
  facet normal 0.707107 -0.707107 -1.36622e-06
    outer loop
      vertex 0 -3.86396 15.75
      vertex 4.5 0.63604 14.136
      vertex 2.88604 -0.977922 15.75
    endloop
  endfacet
  facet normal 0.707107 -0.707107 0
    outer loop
      vertex 4.5 0.63604 14.136
      vertex 0 -3.86396 15.75
      vertex 0 -3.86396 6.75
    endloop
  endfacet
  facet normal 0.707107 -0.707107 -2.67226e-17
    outer loop
      vertex 4.5 0.63604 14.136
      vertex 0 -3.86396 6.75
      vertex 6.36396 2.5 6.75
    endloop
  endfacet
  facet normal -1 0 0
    outer loop
      vertex -4.5 0.63604 14.136
      vertex -4.5 -1.36396 16.136
      vertex -4.5 0.63604 15.75
    endloop
  endfacet
  facet normal -1 0 0
    outer loop
      vertex -4.5 4.36396 15.75
      vertex -4.5 11.364 16.136
      vertex -4.5 5 9.77208
    endloop
  endfacet
  facet normal -1 0 0
    outer loop
      vertex -4.5 4.36396 15.75
      vertex -4.5 5 9.77208
      vertex -4.5 4.36396 10.4081
    endloop
  endfacet
  facet normal -1 -0 0
    outer loop
      vertex -4.5 11.364 16.136
      vertex -4.5 4.36396 15.75
      vertex -4.5 5 22.5
    endloop
  endfacet
  facet normal -1 0 0
    outer loop
      vertex -4.5 0.63604 15.75
      vertex -4.5 5 22.5
      vertex -4.5 4.36396 15.75
    endloop
  endfacet
  facet normal -1 0 0
    outer loop
      vertex -4.5 5 22.5
      vertex -4.5 0.63604 15.75
      vertex -4.5 -1.36396 16.136
    endloop
  endfacet
  facet normal 1 0 0
    outer loop
      vertex 4.5 4.36396 15.75
      vertex 4.5 11.364 16.136
      vertex 4.5 5 22.5
    endloop
  endfacet
  facet normal 1 0 0
    outer loop
      vertex 4.5 11.364 16.136
      vertex 4.5 4.36396 15.75
      vertex 4.5 5 9.77208
    endloop
  endfacet
  facet normal 1 0 0
    outer loop
      vertex 4.5 5 22.5
      vertex 4.5 0.63604 15.75
      vertex 4.5 4.36396 15.75
    endloop
  endfacet
  facet normal 1 0 0
    outer loop
      vertex 4.5 0.63604 15.75
      vertex 4.5 -1.36396 16.136
      vertex 4.5 0.63604 14.136
    endloop
  endfacet
  facet normal 1 -0 0
    outer loop
      vertex 4.5 -1.36396 16.136
      vertex 4.5 0.63604 15.75
      vertex 4.5 5 22.5
    endloop
  endfacet
  facet normal 1 0 0
    outer loop
      vertex 4.5 5 9.77208
      vertex 4.5 4.36396 15.75
      vertex 4.5 4.36396 10.4081
    endloop
  endfacet
  facet normal 0 -0.707109 0.707105
    outer loop
      vertex -4.5 -1.36396 16.136
      vertex 4.5 5 22.5
      vertex -4.5 5 22.5
    endloop
  endfacet
  facet normal 0 -0.707109 0.707105
    outer loop
      vertex 4.5 5 22.5
      vertex -4.5 -1.36396 16.136
      vertex 4.5 -1.36396 16.136
    endloop
  endfacet
  facet normal 0 0.707101 -0.707112
    outer loop
      vertex 4.5 11.364 16.136
      vertex 0 8.86396 13.636
      vertex -4.5 11.364 16.136
    endloop
  endfacet
  facet normal 0 0.707102 -0.707111
    outer loop
      vertex 3.86396 5 9.77208
      vertex 4.5 11.364 16.136
      vertex 4.5 5 9.77208
    endloop
  endfacet
  facet normal -1.42628e-06 0.707102 -0.707111
    outer loop
      vertex 4.5 11.364 16.136
      vertex 3.86396 5 9.77208
      vertex 0 8.86396 13.636
    endloop
  endfacet
  facet normal 1.42628e-06 0.707102 -0.707111
    outer loop
      vertex -3.86396 5 9.77208
      vertex -4.5 11.364 16.136
      vertex 0 8.86396 13.636
    endloop
  endfacet
  facet normal 0 0.707102 -0.707111
    outer loop
      vertex -4.5 11.364 16.136
      vertex -3.86396 5 9.77208
      vertex -4.5 5 9.77208
    endloop
  endfacet
  facet normal 0 -0.707072 -0.707142
    outer loop
      vertex -4.5 -1.36396 16.136
      vertex -2.88604 -0.977922 15.75
      vertex 4.5 -1.36396 16.136
    endloop
  endfacet
  facet normal 1.66485e-05 -0.707107 -0.707107
    outer loop
      vertex -2.88604 -0.977922 15.75
      vertex -4.5 -1.36396 16.136
      vertex -4.5 0.63604 14.136
    endloop
  endfacet
  facet normal -0 -0.707072 -0.707142
    outer loop
      vertex 2.88604 -0.977922 15.75
      vertex 4.5 -1.36396 16.136
      vertex -2.88604 -0.977922 15.75
    endloop
  endfacet
  facet normal -1.66485e-05 -0.707107 -0.707107
    outer loop
      vertex 4.5 -1.36396 16.136
      vertex 2.88604 -0.977922 15.75
      vertex 4.5 0.63604 14.136
    endloop
  endfacet
  facet normal 0 -0.707096 -0.707118
    outer loop
      vertex 4.5 4.36396 10.4081
      vertex 3.86396 5 9.77208
      vertex 4.5 5 9.77208
    endloop
  endfacet
  facet normal -0 -0.707096 -0.707118
    outer loop
      vertex -3.86396 5 9.77208
      vertex -4.5 4.36396 10.4081
      vertex -4.5 5 9.77208
    endloop
  endfacet
  facet normal 0 0.707107 0.707107
    outer loop
      vertex 4.5 11.364 16.136
      vertex -4.5 5 22.5
      vertex 4.5 5 22.5
    endloop
  endfacet
  facet normal 0 0.707107 0.707107
    outer loop
      vertex -4.5 5 22.5
      vertex 4.5 11.364 16.136
      vertex -4.5 11.364 16.136
    endloop
  endfacet
endsolid OpenSCAD_Model
